<svg xmlns="http://www.w3.org/2000/svg" xmlns:xlink="http://www.w3.org/1999/xlink" version="1.1" id="Capa_1" x="0" y="0" viewBox="0 0 250.32 250.32" xml:space="preserve" width="64" height="64" enable-background="new 0 0 250.324 250.324">
  <path d="M154.58 191.37c4.14 0 7.5-3.36 7.5-7.5 0-4.14-3.36-7.5-7.5-7.5H95.75c-4.14 0-7.5 3.36-7.5 7.5 0 4.14 3.36 7.5 7.5 7.5H154.58z" fill="#FFFFFF"/>
  <path d="M7.5 93.96h19.82c12.02 42.72 51.33 74.13 97.85 74.13 46.51 0 85.82-31.41 97.85-74.13h19.81c4.14 0 7.5-3.36 7.5-7.5s-3.36-7.5-7.5-7.5h-16.8c0.5-4.1 0.77-8.27 0.77-12.5 0-4.14-3.36-7.5-7.5-7.5H31.03c-4.14 0-7.5 3.36-7.5 7.5 0 4.23 0.26 8.4 0.77 12.5H7.5c-4.14 0-7.5 3.36-7.5 7.5S3.36 93.96 7.5 93.96zM211.47 73.96c-3.82 44.27-41.07 79.13-86.31 79.13 -45.24 0-82.49-34.86-86.31-79.13H211.47z" fill="#FFFFFF"/>
  <path d="M125.16 132.39c3.39 0 6.15-2.74 6.15-6.12 0-3.39-2.76-6.16-6.15-6.16 -3.39 0-6.15 2.76-6.15 6.16C119.02 129.65 121.78 132.39 125.16 132.39z" fill="#FFFFFF"/>
  <path d="M125.16 106.93c3.39 0 6.15-2.75 6.15-6.12 0-3.39-2.76-6.15-6.15-6.15 -3.39 0-6.15 2.76-6.15 6.16C119.02 104.18 121.78 106.93 125.16 106.93z" fill="#FFFFFF"/>
  <path d="M94.53 132.39c3.4 0 6.16-2.74 6.16-6.12 0-3.39-2.76-6.16-6.16-6.16 -3.39 0-6.15 2.76-6.15 6.16C88.38 129.65 91.14 132.39 94.53 132.39z" fill="#FFFFFF"/>
  <path d="M94.53 106.93c3.4 0 6.16-2.75 6.16-6.12 0-3.39-2.76-6.15-6.16-6.15 -3.39 0-6.15 2.76-6.15 6.16C88.38 104.18 91.14 106.93 94.53 106.93z" fill="#FFFFFF"/>
  <path d="M70.04 100.81c0-3.39-2.76-6.15-6.15-6.15 -3.39 0-6.14 2.76-6.14 6.16 0 3.38 2.76 6.12 6.15 6.12C67.29 106.93 70.04 104.18 70.04 100.81z" fill="#FFFFFF"/>
  <path d="M79.22 94.19c3.39 0 6.15-2.74 6.15-6.12 0-3.39-2.76-6.15-6.15-6.15 -3.4 0-6.16 2.76-6.16 6.16C73.06 91.45 75.82 94.19 79.22 94.19z" fill="#FFFFFF"/>
  <path d="M79.22 119.66c3.39 0 6.15-2.74 6.15-6.12 0-3.39-2.76-6.15-6.15-6.15 -3.4 0-6.16 2.76-6.16 6.15C73.06 116.91 75.82 119.66 79.22 119.66z" fill="#FFFFFF"/>
  <path d="M186.42 106.93c3.4 0 6.16-2.75 6.16-6.12 0-3.39-2.76-6.15-6.16-6.15 -3.39 0-6.14 2.76-6.14 6.16C180.27 104.18 183.03 106.93 186.42 106.93z" fill="#FFFFFF"/>
  <path d="M155.79 132.39c3.39 0 6.15-2.74 6.15-6.12 0-3.39-2.76-6.16-6.15-6.16 -3.39 0-6.14 2.76-6.14 6.16C149.64 129.65 152.4 132.39 155.79 132.39z" fill="#FFFFFF"/>
  <path d="M155.79 106.93c3.39 0 6.15-2.75 6.15-6.12 0-3.39-2.76-6.15-6.15-6.15 -3.39 0-6.14 2.76-6.14 6.16C149.64 104.18 152.4 106.93 155.79 106.93z" fill="#FFFFFF"/>
  <path d="M171.11 94.19c3.4 0 6.15-2.74 6.15-6.12 0-3.39-2.76-6.15-6.15-6.15 -3.4 0-6.16 2.76-6.16 6.16C164.94 91.45 167.71 94.19 171.11 94.19z" fill="#FFFFFF"/>
  <path d="M171.11 119.66c3.4 0 6.15-2.74 6.15-6.12 0-3.39-2.76-6.15-6.15-6.15 -3.4 0-6.16 2.76-6.16 6.15C164.94 116.91 167.71 119.66 171.11 119.66z" fill="#FFFFFF"/>
  <path d="M109.85 94.19c3.4 0 6.16-2.74 6.16-6.12 0-3.39-2.76-6.15-6.16-6.15 -3.39 0-6.15 2.76-6.15 6.16C103.7 91.45 106.46 94.19 109.85 94.19z" fill="#FFFFFF"/>
  <path d="M109.85 119.66c3.4 0 6.16-2.74 6.16-6.12 0-3.39-2.76-6.15-6.16-6.15 -3.39 0-6.15 2.76-6.15 6.15C103.7 116.91 106.46 119.66 109.85 119.66z" fill="#FFFFFF"/>
  <path d="M109.85 145.13c3.4 0 6.16-2.74 6.16-6.12 0-3.39-2.76-6.15-6.16-6.15 -3.39 0-6.15 2.76-6.15 6.15C103.7 142.38 106.46 145.13 109.85 145.13z" fill="#FFFFFF"/>
  <path d="M140.48 94.19c3.4 0 6.15-2.74 6.15-6.12 0-3.39-2.76-6.15-6.15-6.15 -3.39 0-6.15 2.76-6.15 6.16C134.32 91.45 137.08 94.19 140.48 94.19z" fill="#FFFFFF"/>
  <path d="M140.48 119.66c3.4 0 6.15-2.74 6.15-6.12 0-3.39-2.76-6.15-6.15-6.15 -3.39 0-6.15 2.76-6.15 6.15C134.32 116.91 137.08 119.66 140.48 119.66z" fill="#FFFFFF"/>
  <path d="M140.48 145.13c3.4 0 6.15-2.74 6.15-6.12 0-3.39-2.76-6.15-6.15-6.15 -3.39 0-6.15 2.76-6.15 6.15C134.32 142.38 137.08 145.13 140.48 145.13z" fill="#FFFFFF"/>
</svg>
