<svg xmlns="http://www.w3.org/2000/svg" xmlns:xlink="http://www.w3.org/1999/xlink" version="1.1" id="Capa_1" x="0" y="0" viewBox="0 0 62.12 62.12" xml:space="preserve" width="64" height="64" enable-background="new 0 0 62.124 62.124">
  <path d="M45.16 0H16.96c-2.34 0-4.25 1.91-4.25 4.25v50.64c0 2.34 1.91 4.25 4.25 4.25h0.33c0 0.59 0 1.19 0 1.78 0 1.61 2.5 1.61 2.5 0 0-0.59 0-1.19 0-1.78h22.7c0 0.59 0 1.19 0 1.78 0 1.61 2.5 1.61 2.5 0 0-0.59 0-1.19 0-1.78h0.18c2.34 0 4.25-1.91 4.25-4.25V4.25C49.41 1.91 47.51 0 45.16 0zM16.96 2.5h28.2c0.97 0 1.75 0.79 1.75 1.75v17.65H15.21V4.25C15.21 3.29 16 2.5 16.96 2.5zM45.16 56.64H16.96c-0.96 0-1.75-0.78-1.75-1.75V24.4h31.7v30.48C46.91 55.85 46.13 56.64 45.16 56.64z" fill="#FFFFFF"/>
  <path d="M18.52 29.01c0 2.26 0 4.52 0 6.79 0 1.61 2.5 1.61 2.5 0 0-2.26 0-4.52 0-6.78C21.02 27.4 18.52 27.4 18.52 29.01z" fill="#FFFFFF"/>
  <path d="M21.02 17.95c0-2.26 0-4.52 0-6.78 0-1.61-2.5-1.61-2.5 0 0 2.26 0 4.52 0 6.79C18.52 19.56 21.02 19.56 21.02 17.95z" fill="#FFFFFF"/>
</svg>
