<svg xmlns="http://www.w3.org/2000/svg" xmlns:xlink="http://www.w3.org/1999/xlink" version="1.1" id="Capa_1" x="0" y="0" viewBox="0 0 397.45 397.45" xml:space="preserve" width="64" height="64" enable-background="new 0 0 397.445 397.445">
  <path id="XMLID_63_" d="M260.9 229.83c0 4.97-4.03 9-9 9h-43.12c-4.97 0-9-4.03-9-9s4.03-9 9-9H251.9C256.87 220.83 260.9 224.85 260.9 229.83zM230.34 57.4c4.97 0 9-4.03 9-9V29.34c0-4.97-4.03-9-9-9s-9 4.03-9 9V48.4C221.34 53.37 225.37 57.4 230.34 57.4zM199.78 103.34c0 4.97 4.03 9 9 9H251.9c4.97 0 9-4.03 9-9s-4.03-9-9-9h-43.12C203.81 94.34 199.78 98.37 199.78 103.34zM251.9 157.58h-43.12c-4.97 0-9 4.03-9 9s4.03 9 9 9H251.9c4.97 0 9-4.03 9-9S256.87 157.58 251.9 157.58zM301.22 57.4c4.97 0 9-4.03 9-9V29.34c0-4.97-4.03-9-9-9s-9 4.03-9 9V48.4C292.22 53.37 296.25 57.4 301.22 57.4zM293.54 112.34h43.12c4.97 0 9-4.03 9-9s-4.03-9-9-9h-43.12c-4.97 0-9 4.03-9 9S288.56 112.34 293.54 112.34zM293.54 175.58h43.12c4.97 0 9-4.03 9-9s-4.03-9-9-9h-43.12c-4.97 0-9 4.03-9 9S288.56 175.58 293.54 175.58zM265.78 57.4c4.97 0 9-4.03 9-9V29.34c0-4.97-4.03-9-9-9s-9 4.03-9 9V48.4C256.78 53.37 260.81 57.4 265.78 57.4zM293.54 238.83h43.12c4.97 0 9-4.03 9-9s-4.03-9-9-9h-43.12c-4.97 0-9 4.03-9 9S288.56 238.83 293.54 238.83zM167.15 157.58h-43.12c-4.97 0-9 4.03-9 9s4.03 9 9 9h43.12c4.97 0 9-4.03 9-9S172.12 157.58 167.15 157.58zM203.91 48.4V29.34c0-4.97-4.03-9-9-9s-9 4.03-9 9V48.4c0 4.97 4.03 9 9 9S203.91 53.37 203.91 48.4zM167.15 94.34h-43.12c-4.97 0-9 4.03-9 9s4.03 9 9 9h43.12c4.97 0 9-4.03 9-9S172.12 94.34 167.15 94.34zM388.45 31.1h-42.79v-1.77c0-4.97-4.03-9-9-9s-9 4.03-9 9V48.4c0 4.97 4.03 9 9 9 4.73 0 8.61-3.65 8.97-8.3h33.82v234.96H208.11c-4.97 0-9 4.03-9 9s4.03 9 9 9h180.34c4.97 0 9-4.03 9-9V40.1C397.45 35.13 393.42 31.1 388.45 31.1zM164.94 222.62c3.52 3.52 3.52 9.21 0 12.73 -3.52 3.52-9.21 3.52-12.73 0l-0.38-0.38 -6.86 6.86c12.14 14.33 19.46 32.85 19.46 53.06 0 45.34-36.88 82.22-82.22 82.22C36.88 377.11 0 340.23 0 294.89c0-39 27.3-71.75 63.79-80.14 -0.07-0.45-0.1-0.91-0.1-1.38 0-4.97 4.03-9 9-9H91.75c4.97 0 9 4.03 9 9 0 0.47-0.04 0.93-0.1 1.38 11.53 2.65 22.15 7.74 31.27 14.68l7.19-7.19 -0.38-0.37c-3.51-3.51-3.51-9.21 0-12.73 3.52-3.52 9.21-3.52 12.73 0l6.66 6.66c0.03 0.03 0.05 0.05 0.08 0.08s0.05 0.05 0.08 0.08L164.94 222.62zM82.22 230.68C46.81 230.68 18 259.48 18 294.89s28.81 64.22 64.22 64.22 64.22-28.81 64.22-64.22S117.63 230.68 82.22 230.68zM72.24 175.58c4.97 0 9-4.03 9-9V49.1h33.82c0.36 4.64 4.24 8.3 8.97 8.3 4.97 0 9-4.03 9-9V29.34c0-4.97-4.03-9-9-9s-9 4.03-9 9v1.77H72.24c-4.97 0-9 4.03-9 9v126.48C63.24 171.55 67.27 175.58 72.24 175.58zM101.28 285.89H91.22v-25.64c0-4.97-4.03-9-9-9s-9 4.03-9 9v34.64c0 4.97 4.03 9 9 9h19.06c4.97 0 9-4.03 9-9S106.25 285.89 101.28 285.89zM159.47 57.4c4.97 0 9-4.03 9-9V29.34c0-4.97-4.03-9-9-9s-9 4.03-9 9V48.4C150.47 53.37 154.5 57.4 159.47 57.4z" fill="#FFFFFF"/>
</svg>
