<?xml version="1.0" standalone="no"?>
<!DOCTYPE svg PUBLIC "-//W3C//DTD SVG 20010904//EN"
 "http://www.w3.org/TR/2001/REC-SVG-20010904/DTD/svg10.dtd">
<svg version="1.0" xmlns="http://www.w3.org/2000/svg"
 width="212.000000pt" height="212.000000pt" viewBox="0 0 212.000000 212.000000"
 preserveAspectRatio="xMidYMid meet">
<metadata>
Created by potrace 1.11, written by Peter Selinger 2001-2013
</metadata>
<g transform="translate(0.000000,212.000000) scale(0.100000,-0.100000)"
fill="#000000" stroke="none">
<path d="M1515 2103 c-50 -13 -269 -58 -335 -68 -19 -3 -42 -8 -50 -10 -8 -2
-32 -6 -53 -9 -21 -4 -109 -22 -195 -41 -302 -68 -586 -164 -723 -245 -122
-73 -123 -81 -30 -355 40 -116 95 -293 122 -395 99 -361 248 -861 268 -898 5
-9 21 -28 35 -41 38 -36 84 -31 306 32 305 87 481 131 565 142 11 2 38 6 60 9
22 3 83 10 135 16 210 23 212 23 327 94 133 81 133 82 68 431 -22 119 -44 242
-59 330 -3 17 -15 80 -25 140 -11 61 -23 126 -26 145 -30 179 -102 470 -146
596 -40 117 -62 139 -137 140 -31 0 -79 -5 -107 -13z m135 -101 c22 -18 49
-135 171 -727 17 -82 32 -157 34 -166 2 -9 24 -121 50 -249 26 -128 49 -242
51 -254 10 -45 5 -126 -8 -139 -25 -25 -74 -54 -117 -71 -49 -19 -197 -51
-281 -61 -30 -3 -66 -8 -80 -10 -44 -8 -84 -14 -135 -20 -83 -10 -274 -55
-365 -85 -47 -16 -132 -44 -189 -64 -130 -45 -155 -46 -180 -5 -10 16 -96 290
-191 607 -95 317 -183 604 -197 637 -13 33 -30 85 -37 115 -20 84 -9 103 85
150 179 91 379 157 654 219 211 48 656 138 686 140 15 0 37 -7 49 -17z"/>
<path d="M1478 1815 c-2 -2 -27 -6 -57 -9 -30 -4 -86 -13 -125 -21 -39 -8 -87
-17 -106 -20 -74 -12 -346 -87 -368 -101 -24 -16 -24 -21 3 -136 8 -34 21 -68
30 -77 14 -14 20 -14 63 3 73 28 261 86 300 92 19 3 42 7 51 9 15 3 139 21
211 31 122 16 157 28 166 56 8 27 -3 73 -29 128 l-22 45 -57 1 c-32 1 -58 0
-60 -1z m82 -70 c18 -22 4 -61 -27 -74 -32 -12 -97 -27 -163 -36 -25 -3 -63
-11 -85 -17 -22 -6 -56 -13 -75 -15 -43 -6 -163 -42 -247 -74 -71 -27 -87 -21
-99 39 -5 27 -4 32 12 32 11 0 44 10 74 21 55 21 217 61 405 99 55 11 116 24
135 29 52 13 56 12 70 -4z"/>
<path d="M476 1615 c-60 -19 -113 -40 -117 -47 -14 -22 10 -113 54 -206 31
-68 49 -69 191 -21 66 23 125 45 130 50 5 4 9 21 8 36 -1 38 -51 183 -70 206
-22 25 -70 20 -196 -18z m187 -95 c10 -30 16 -64 15 -74 -4 -23 -126 -75 -176
-76 -28 0 -35 5 -47 34 -21 50 -40 124 -33 131 9 9 171 43 198 42 21 -2 28
-11 43 -57z"/>
<path d="M1545 1375 c-60 -13 -153 -33 -205 -44 -52 -12 -149 -32 -215 -46
-66 -14 -140 -32 -165 -39 l-45 -13 -1 -49 c-1 -63 10 -113 31 -133 28 -28
121 -17 285 34 31 10 356 85 390 90 19 3 58 12 87 20 40 12 53 21 61 42 11 34
-7 114 -33 143 -23 26 -52 25 -190 -5z m157 -39 c10 -14 10 -66 1 -67 -5 -1
-17 -3 -28 -4 -38 -5 -110 -16 -135 -20 -14 -3 -41 -7 -60 -10 -55 -9 -103
-23 -286 -81 -95 -30 -181 -54 -192 -54 -15 0 -22 9 -27 31 -8 34 4 49 40 49
11 0 79 16 150 35 72 19 198 50 281 69 82 19 166 41 185 48 41 18 62 19 71 4z"/>
<path d="M583 1195 c-87 -24 -123 -42 -123 -63 0 -33 58 -203 76 -223 9 -10
27 -19 38 -19 31 1 219 68 228 83 4 6 8 26 8 42 0 40 -37 155 -57 177 -20 22
-94 23 -170 3z m137 -69 c5 -13 10 -46 12 -72 l3 -48 -75 -23 c-41 -12 -78
-23 -81 -23 -6 0 -62 140 -57 144 4 3 117 34 143 40 40 8 46 6 55 -18z"/>
<path d="M1645 939 c-38 -11 -146 -35 -240 -54 -255 -50 -408 -86 -424 -98
-15 -13 -10 -132 8 -166 28 -51 51 -50 276 4 61 15 120 29 131 31 12 2 77 17
145 33 68 16 143 32 167 36 24 4 55 17 69 29 25 22 25 23 15 100 -6 43 -14 82
-19 87 -18 18 -62 17 -128 -2z m86 -92 c9 -34 12 -33 -181 -81 -80 -19 -185
-46 -235 -60 -98 -26 -129 -32 -221 -42 l-61 -6 -5 30 -4 30 235 57 c130 32
277 68 326 80 115 30 136 28 146 -8z"/>
<path d="M640 727 c-53 -16 -76 -27 -78 -40 -5 -26 38 -165 60 -193 24 -30 61
-31 148 -1 86 29 88 44 28 205 -18 48 -22 52 -51 51 -18 0 -66 -10 -107 -22z
m102 -69 c9 -7 21 -30 27 -51 10 -38 9 -39 -23 -52 -69 -29 -82 -29 -94 2 -6
15 -13 41 -14 58 -3 26 1 31 32 42 45 15 53 16 72 1z"/>
</g>
</svg>
