<svg version="1" xmlns="http://www.w3.org/2000/svg" width="1365.333" height="1365.333" viewBox="0 0 1024.000000 1024.000000"><path d="M353.7 196.6c-.1.1-3.3.5-7.2.8-3.8.4-8.1.9-9.5 1.1-4.3.6-30.9 3-45 4-3.6.3-8.3.7-10.5 1-2.2.2-8 .7-13 1.1-4.9.3-10.3.8-12 1-1.6.2-5.2.6-8 .9-2.7.3-5.9.8-7 1-1.1.2-2.3.4-2.8.4-.9.1-5.2 5-5.3 6.2-.1.5-.3 1.1-.4 1.4-.1.3-.4.9-.5 1.5-.1.5-.3 1.1-.5 1.2-1.9 2.5-1.7 38.1.4 48.8.3 1.4.7 4.7 1 7.5.3 2.7.8 6.1 1 7.5.5 2.7 1.6 9.3 2.1 12.5.2 1.1.6 3.2.9 4.7.3 1.6.8 4 1.1 5.5.6 3.3 3.1 14.1 4.7 20.3 3.1 12.4 11.4 20.9 22.1 22.7 7.3 1.3 20.2.7 36.2-1.7 5.9-.9 11.9-1.6 22.2-2.6 2.8-.2 6.4-.6 8-.9 1.5-.2 5.1-.6 7.8-1 2.8-.3 6.1-.9 7.5-1.1 1.4-.3 4.3-.7 6.5-1 2.2-.3 5.6-.7 7.5-1 1.9-.2 5.3-.7 7.5-.9 2.2-.3 5.1-.7 6.5-1 1.4-.3 3.9-.7 5.5-.9 10.9-1.3 13.1-2 16.3-5.2 1.7-1.7 3.2-4.1 3.2-5.1 0-1.1.3-2.3.7-2.7 2.4-2.4 2.2-37-.3-55.6-.2-1.4-.6-4.3-.8-6.5-1.2-9.4-1.7-13.2-2.2-16-.8-4.7-1.5-10.6-1.9-15.5-.1-2.5-.5-5.2-.8-6-.3-.8-1.1-3.4-1.7-5.8-.6-2.3-1.5-4.2-2-4.2-.6 0-1-.6-1-1.4 0-1.9-6-7.5-10.9-10.2-4.3-2.5-13.2-4.5-20.4-4.8-2.6-.1-4.9-.1-5 0zm12.2 36.3c4.6 3.3 6.6 9.6 7.6 23.6.2 3.8.7 9.2 1.1 12 2 15.7 2 29 0 33.8-.8 2-2.6 4.3-4.1 5.3-2.4 1.6-10.5 3.9-17 4.8-1.6.3-6.3 1.2-10.2 2-4 .9-8.6 1.8-10.3 2.1-1.6.3-4.2.7-5.7 1-1.6.2-4.8.7-7.3.9-2.5.3-7 .8-10 1.2-3 .4-10 .8-15.5.9-11.1.2-17.3-1.3-22.2-5.5-7.2-6.1-9.1-12.4-9.7-31.7-.2-6-.5-11.4-.8-11.9-.3-.5-.9-3.3-1.2-6.3-.4-2.9-.8-5.7-1.1-6.1-.7-1.1-1.8-12-1.6-15.9.3-5.7 3.7-10.1 8.6-10.8 1.1-.2 20.3-.5 42.8-.7 22.4-.1 41-.5 41.3-.9 1.4-1.3 12.5.3 15.3 2.2zM595.7 201.7c-.2.1-8.2.5-17.8.8-9.6.4-20.5.8-24.4 1-3.8.2-12.4.6-19 1-6.6.3-14.5.8-17.5 1-3 .2-9.8.7-15 1.1-10.3.7-14.5 1.1-14.5 1.3 0 .1-3.4.4-7.5.6-4.1.3-8.6.7-10 1-1.4.3-3.8.8-5.4 1.1-3.8.6-7.7 3-9.8 5.8-3.9 5.3-4.5 11.6-4.2 46.1.2 18.1.5 34.3.7 36 .8 5.9 2 11 3 12.2.5.7.6 1.3.3 1.3-1.9 0 5.7 8.9 8.6 10.1 3.9 1.7 18.2 1.7 20.1 0 .8-.6 1.6-.9 1.9-.6.2.3 2.9-.1 5.9-.9 5-1.3 8.5-2 14.9-3.1 3.7-.6 9.2-1.5 12-2 7.3-1.3 20.9-2.8 25.7-2.9 2.4-.1 4.3-.3 4.3-.6s1.5-.6 3.3-.7c1.7 0 6.4-.3 10.2-.7 3.9-.3 10.2-.8 14-1.1 3.9-.3 9.5-.7 12.5-1 31-2.5 76-2.1 116 1 3.6.3 10.3.8 15 1.1 4.7.2 11.2.7 14.5.9 3.3.3 9.4.7 13.5 1 4.1.3 10.2.7 13.5 1 7.2.6 21.6 1.5 30.5 2 3.6.2 6.5.4 6.5.5 0 .5 28.2.6 29 0 .6-.4 1.9-.7 3-.7 1.1-.1 3.4-.7 5-1.4 1.7-.7 3.3-1.2 3.7-1.1 1.5.3 9.8-8.8 11.3-12.5 2.4-5.4 2.9-8.6 2.8-18.3 0-8.7-.6-14.9-2.3-23-.5-2.5-1.2-5.9-1.4-7.5-.3-1.7-.7-4.1-1.1-5.5-.3-1.4-.8-3.9-1-5.5-.2-1.7-.7-4.4-1-6-.3-1.7-.6-3.8-.6-4.8 0-2.7-3.8-10.9-5.8-12.9-2.1-1.9-10.1-4.8-15.1-5.4-1.9-.3-4.6-.7-6-.9-1.4-.3-4.3-.7-6.5-1-4.7-.7-8-1.3-8-1.5 0-.1-2.2-.3-4.8-.5-2.7-.2-7.4-.7-10.5-1-3.2-.4-8.2-.8-11.2-1-3-.2-10-.7-15.5-1-28.2-1.8-63.6-2.7-117.8-2.9-26.2-.1-47.9-.1-48 .1zm167.8 36.8c23 1.1 27.9 1 46.2-.9 4.7-.5 6.9 2.1 8.8 10.6 2.1 9.7 1.4 16.1-2.3 20.7-3 3.8-13.4 9.5-19.2 10.6-1.9.3-5.1.9-7 1.2-7 1.3-51.5.4-53.8-1.1-.6-.3-1.3-.3-1.6.2-.3.4-2.9.6-5.8.2-3.9-.4-64.1-.4-73.3 0-.5.1-3.6-.1-6.8-.2-3.2-.2-6.1 0-6.4.4-.2.5-.9.5-1.6.1-1.6-1-5.7-1-5.7 0 0 .4-.5.5-1.1.1-1.7-1-36.9-1.1-36.9-.1 0 .4-.8.3-1.9-.2-1-.6-2.1-.8-2.4-.5-.3.4-4.1.8-8.4 1-7.8.4-15.8 1.1-15.8 1.4 0 .1-2.1.3-4.7.5-4.3.3-7 .7-13.8 1.9-1.4.3-4.2.7-6.2 1-2.1.3-5.7 1-8 1.5-4.8 1.1-8.7 1.9-13.7 2.7-1.8.3-4.2.8-5.2 1-1.1.2-2.9.6-4.1.9-5.1 1.1-12.7 1.8-19.4 1.9-8.3 0-13.2-2-16.5-6.5-2.4-3.5-2.8-5.3-3.4-15.2-.3-3.7-.9-7.7-1.5-8.8-.7-1.1-.9-2.7-.6-3.4.3-.8.1-1.7-.4-2-1.4-.9 0-6.9 2.2-8.7 1.4-1.3 2.9-1.6 5.2-1.2 8.4 1.7 19.7.8 45.1-3.6 9.9-1.7 22.2-3.2 27.2-3.3 5.1-.1 9.3-.4 9.3-.7 0-.8 11.5-.4 12.8.4.7.4 1.2.3 1.2-.1 0-.5 14.3-.9 31.8-.9 32.8-.1 71.2-1 71.9-1.8.6-.6 68.5.1 85.8.9zM314.7 408.6c-.1.1-4.9.4-10.7.8-5.8.3-11.6.8-13 1-1.4.2-5 .7-8 1.1-8.2.9-12.1 1.4-16 2-1.9.2-5.7.7-8.5 1.1-7.6.9-14.7 2.1-14.9 2.6 0 .2-.7 1.3-1.3 2.5-.7 1.2-1.6 4.6-1.9 7.5-.4 2.9-.8 5.6-1.1 6-.2.5.1.8.8.8.7 0 .8.4.2 1.2-.5.7-.8 2.9-.6 4.8.6 8.8 1.4 17.8 1.7 20.5.2 1.6.7 5.9 1 9.5.4 3.6 1 8.3 1.2 10.5.3 2.2.7 7.5.9 11.7.3 7.3 1.2 18.4 1.9 23.8 2.3 17.2 10.6 31.1 20.1 33.7 8.1 2.1 15.4 2.3 35.5.9 11.1-.8 17.5-1.6 26-3.2.8-.2 3.3-.5 5.5-.9 2.2-.3 5.1-.8 6.5-1.1 1.4-.3 4.3-.7 6.5-1 2.2-.2 6.5-.8 9.5-1.4 3-.5 7.5-1.2 10-1.5 9.6-1 12.3-1.6 15.3-3.2 3.1-1.5 8-6 8.4-7.6.2-.4.9-2 1.7-3.5 3.5-6.9 4.9-25.3 3.3-43.7-1.5-15.8-1.8-19.1-2.3-22.5-.3-1.9-.7-6-1-9-1.4-15.7-4.4-23.1-12.3-30.2-5.1-4.6-15.6-9.3-23-10.4-2-.2-4.5-.7-5.6-.9-5.2-1.1-34.9-2.7-35.8-1.9zm41.7 33.7c6.1.9 6.3 1.7 6.1 31.3-.1 14.8-.6 28.5-1 30.4-1 4.6-4.1 8.9-7.4 10.2-1.4.5-9.6 1.1-18.1 1.3-14.4.3-24.7.9-32.8 2-15.8 2.3-18.6 2.4-22.1.9-5.6-2.3-7.6-9.3-8.6-28.9-.2-5.9-1.3-12.9-2.5-17-4.7-15.8-5.4-19-5.1-23.7.2-2.9 3.9-4 14.5-4.4 5.6-.2 11.5-.5 13.2-.8 1.7-.3 6-.8 9.5-1.1 3.5-.4 6.5-.8 6.7-.9.4-.4 44.4.3 47.6.7zM786.7 418.7c-.3.2-119.4 1.4-123.2 1.3-1.6-.1-3.4-.2-4-.1-.5 0-2.3.2-4 .4-1.6.1-4.2-.1-5.7-.5-1.5-.3-3-.3-3.2.1-.4.6-5.1.6-6.6.1-.3-.1-.9-.1-1.5 0-.5.1-26.4.4-57.5.6-61 .3-102.9 1.1-107.2 1.9-8.7 1.7-12.6 5.4-15.7 14.7-1.3 3.8-1.8 9.9-2.6 27.2-.3 6.6-.7 12.8-1.1 13.8-.3.9-.7 5.8-.9 10.8-.6 11.6 1.6 18 8.3 24.8 4.6 4.6 11.5 8.8 15.9 9.6 1.2.3 3 .9 4 1.4 1 .5 3.8 1.3 6.3 1.7 2.5.4 5.4.9 6.5 1.2 10.6 2.1 42.1 2.1 69-.2 9.3-.8 16-1.4 21-1.9 2.8-.3 8.2-.8 12-1.2 3.9-.3 8.6-.7 10.5-.9 18.9-1.6 45.5-2.5 90.8-3 21.6-.2 39.7-.7 40.4-1.1.6-.4.9-.3.5.2-.4.7 8.4 1.1 10.3.4 1.3-.4 8.1-.2 8.6.3.4.3 1.7.2 3-.3s2.4-.6 2.4-.2c0 .7 2 .6 14.3-.1 2.6-.1 4.7.1 4.7.4 0 .4 1.4.4 3-.1 1.7-.5 3-.6 3-.2 0 .4 1.4.7 3 .7 1.7 0 3-.2 3-.5s3.3-.4 7.3-.2c3.9.1 7.7.3 8.2.2 13.1-.1 33.3-.9 36.7-1.4 16.9-2.3 25.7-15.3 25.9-38.1.1-6.2-.8-18.7-1.7-22.7-.2-1.3-.7-4.5-.9-7.1-.3-2.7-.7-5.3-1.1-5.8-.3-.5-.8-2.1-1-3.6-1.6-8.7-8.4-16.3-16.7-18.7-7.6-2.2-11.2-2.6-32.2-3.2-10.4-.3-21.9-.6-25.3-.7-3.5-.1-6.4-.1-6.5 0zm52.8 26.7c4.1 1 5.1 4.9 5 18.1-.1 13.3-1.4 18.9-4.8 20.1-3.1 1-10.7 1.2-10.7.2 0-.5-.8-.4-1.9.1-1 .6-2.1.8-2.4.5-.5-.5-5.3-1-17.7-1.9-18.7-1.2-23.8-1.6-27.5-2.1-3.8-.5-4.6-.5-7.7-.3-.7 0-7.4-.3-14.8-.7-28.8-1.5-74.2-.9-92 1.3-3 .4-7.6.7-10.2.7-2.7.1-4.8.3-4.8.6 0 .4-1 .6-2.2.7-2.2 0-10 .7-21.3 1.8-2.7.2-7.5.7-10.5 1-3 .2-8.2.7-11.5 1-3.3.3-8.5.8-11.5 1-3 .2-5.5.5-5.5.5 0 .1-2.7.3-6 .6-3.3.2-7.8.5-10 .8-2.2.2-7.6.7-12 1.1-4.4.3-9.1.8-10.5 1-1.4.2-4.7.6-7.5.9-9.3 1.1-13 1.6-15.5 2.1-1.4.3-3.8.7-5.5 1-1.6.2-5.3.8-8.2 1.3-6.7 1.1-19.2.7-20.6-.7-.6-.6-1.8-1.1-2.7-1.1-1.8 0-5.1-3.4-6.5-6.5-.9-2.2-1.3-11.5-.6-13 .3-.6.4-3.9.3-7.5-.3-8.9 1.1-10.6 8.1-10.1 2.9.2 21.9.5 42.2.5 36.1.1 52.8-.5 79.8-2.8 12.3-1.1 18.5-1.6 23.7-2.1 8.6-.8 41-1.5 95.5-2 27.5-.2 52.3-.7 55-1 2.8-.4 6.4-.8 8-1 1.7-.2 3-.4 3-.5 0-.1 1.6-.3 3.5-.5 1.9-.1 5.1-.6 7-.9 5-1 7.8-1.4 14-2.1 3-.4 5.6-.8 5.8-1 .4-.4 9.1.3 11.7.9zM803.8 631.5c-.2.3-5.1.7-10.9 1-5.7.4-12.2.8-14.4 1-33.2 2.9-72.9 3.5-129.5 2-43.5-1.2-109.5-.9-169.8.8-5 .1-9.2-.2-9.2-.6 0-.5-.5-.5-1.2-.1s-3.9.9-7.3 1c-3.3 0-6.5.2-7.1.3-2.3.2-8.2 6.7-9.9 10.6-2.1 5.1-4.7 17.5-4.1 19.2.3.7.2 1.3-.2 1.3s-.7 2.1-.8 4.8c0 2.6-.4 9-.9 14.2-1 11.2-1.1 26.1-.3 31 2.2 12 9.7 19.9 22.9 24 3.5 1 5.1 1.3 15.4 2.6 5.9.8 29.3.7 53-.1 9.4-.4 26.1-.7 37.2-.8 11.2-.1 20.3-.4 20.3-.7 0-.3 13.8-.6 30.8-.6 27.9-.2 50-.7 86.7-2 31-1.1 68-1.1 68.7 0 .5.7.8.8.8 0 0-.6 1.7-.9 4.3-.7 9.2.8 24.7.8 24.7-.1 0-.4.6-.6 1.3-.3 2.3.9 12-1.4 17.7-4.1 11.9-5.6 16.4-14.6 16.2-32.2-.1-5.2.3-13.1 1-17.5.6-4.4 1.2-13.8 1.3-20.8.3-11.6.1-13.2-2-17.5-4.7-9.7-11.1-13.6-23.7-14.5-2.4-.2-5-.7-5.6-1.1-.7-.4-1.2-.2-1.2.4 0 .7-.6.8-1.9.1-1-.6-2-.8-2.3-.6zM793.6 666c1.9-.4 3.4-.4 3.4 0s.8.7 1.8.7c4.4 0 5.9.5 8.7 2.7 2.9 2.3 2.9 2.4 3.1 14.2.1 6.6-.2 12.7-.8 13.7-.5 1-2.2 2.6-3.8 3.6-3.3 1.9-.7 1.8-63.1 2.4-19.6.2-36.2.7-36.9 1.2-.9.6-1.1.4-.5-.5.5-.9.4-1.1-.4-.6-.7.4-4.4.9-8.4 1.1-10.3.6-25.4 1.5-31.2 2-2.7.3-8 .7-11.8.9-3.7.3-7.2.8-7.7 1.1-.6.3-1 .1-1-.5 0-.7-.5-.8-1.2-.3-.7.4-2.4.9-3.8.9-2.5.1-11.9.9-26 2.1-4.1.3-10.5.6-14.2.7-3.8.1-6.8.4-6.8.7 0 .6-57.9.3-66-.4-3-.3-10.2-.8-16-1.1-5.8-.3-14.1-.9-18.5-1.2-4.4-.3-10.2-.7-13-.9-2.7-.1-5-.3-5-.5 0-.1-1.8-.4-4-.6-2.2-.3-5.1-1.2-6.3-2-2.1-1.4-2.3-2.1-1.7-6.2.3-2.6.8-5.6.9-6.7.3-2.2 1.5-9.9 2.1-13 .2-1.1.4-2.5.4-3 .1-.6 6.2-1.1 16.4-1.1 18.2-.1 57.3-1.2 68.7-1.9 4.1-.3 11.6-.7 16.7-.9 5.1-.2 9.7-.7 10.3-1.1.5-.3 1-.1 1 .5s.4.9.9.5c1.7-1 7.1-1.3 7.1-.3 0 .5.5.6 1.2.2 2-1.3 21.6-1.9 93.3-2.9 38.6-.6 71-1.3 71-1.5 0-.1 5.1-.4 25.8-1.4 4.9-.2 9.1-.7 9.5-1 .3-.4 1-.2 1.5.3s2.4.5 4.3.1zM324.7 632.6c-.1.1-9.2.5-20.2.9-20.2.6-25.1.9-36 2-3.3.4-7.7.8-9.7 1-6.2.4-10.9 3.6-13.7 9.1-2.3 4.5-2.5 6.1-2.6 17.9 0 11.6.5 17.6 1.9 24 .4 2 1.2 9.1 2.1 19.5 1.1 12.1 4 28.2 5.7 31.3.5 1 1.1 2.7 1.3 3.7.4 2.3 5.1 9.7 7.9 12.5 2.1 2.1 10.5 5.9 11.3 5.1.2-.2 1.8 0 3.4.4 1.6.5 2.9.6 2.9.2 0-.4 4.8-.7 10.8-.8 10.8 0 32-1.2 35.7-1.9 1.1-.2 5.2-.7 9-1 10.6-.8 13-1.2 16.6-2.8 4.1-1.8 8.9-6.2 8.9-8.2 0-.8.5-1.5 1.2-1.5.6 0 .9-.2.6-.6-.3-.3 0-2.4.7-4.7 1.2-4.2 1.3-23.4.1-29.3-.3-1.6-.8-5.6-1.1-8.9-.9-8.6-1.4-12.5-1.9-16.5-.6-3.6-1.8-19-2-24.8 0-1.7-.4-3.2-.7-3.2-.3 0-.6-.6-.6-1.3-.2-7.1-6.2-17.9-11.3-20.2-2.7-1.2-19.3-2.7-20.3-1.9zm-4.1 38.5c7.8 3.3 10.4 7.4 11.8 18.4.3 2.2.8 5.8 1.1 8 .4 2.2.7 8.1.9 13.1.3 8 0 9.4-1.8 11.7-1.7 2.1-3.3 2.8-7.1 3.2-10.6 1.2-13.1 1.5-15.5 2-1.4.3-4.1.8-6 1.1-1.9.3-4.1.7-4.9 1-.7.2-5.1.7-9.7 1.1-6 .4-8.4.2-8.4-.6 0-.6-.7-1.1-1.5-1.1-1.7 0-4-4.7-5.4-10.7-.5-2.4-1-9.9-1-16.7-.2-11.9-.8-20.7-1.6-21.4-.2-.2.1-1.7.7-3.3 1.5-4.4 4.3-5.4 17.1-6.2 1.5-.1 2.7-.4 2.7-.7 0-.3 5.4-.6 12-.7 10.1-.2 12.7.1 16.6 1.8z"/></svg>